<?xml version="1.0" encoding="UTF-8"?>
<svg xmlns="http://www.w3.org/2000/svg" xmlns:xlink="http://www.w3.org/1999/xlink" width="348.75pt" height="348.75pt" viewBox="0 0 348.75 348.75" version="1.1">
<g id="surface738">
<path style=" stroke:none;fill-rule:nonzero;fill:rgb(0%,0%,0%);fill-opacity:1;" d="M 119.5 1 C 119.199219 1.5 116.898438 2 114.5 2 C 112.101562 2 109.800781 2.398438 109.5 3 C 109.199219 3.5 107.601562 4 106 4 C 103.101562 4 99.601562 5.300781 91.699219 9.101562 C 89.5 10.199219 87 11 86 11 C 83.800781 11 71.300781 17.5 68.398438 20.101562 C 67.300781 21.101562 65.898438 22 65.300781 22 C 64.800781 22 63.5 22.898438 62.5 24 C 61.5 25.101562 60.101562 26 59.300781 26 C 58.5 26 55.699219 28 53.101562 30.5 C 50.5 33 47.898438 35 47.398438 35 C 46.300781 35 35 46.199219 35 47.398438 C 35 47.898438 33 50.5 30.5 53.101562 C 28 55.699219 26 58.601562 26 59.300781 C 26 60.101562 25.398438 61.300781 24.601562 61.898438 C 23.800781 62.601562 21.699219 65.898438 20 69.300781 C 18.199219 72.699219 15.898438 76.398438 14.898438 77.601562 C 13.800781 78.699219 13 80.398438 13 81.398438 C 13 82.300781 12.101562 85 11 87.199219 C 9.898438 89.5 9 92.199219 9 93.101562 C 9 94.101562 8.601562 95.199219 8 95.5 C 7.5 95.800781 7 97.601562 7 99.398438 C 7 101.199219 6.300781 103.5 5.5 104.601562 C 4.699219 105.601562 4 107.898438 4 109.699219 C 4 111.398438 3.601562 113.199219 3 113.5 C 2.398438 113.800781 2 118.699219 2 124.601562 C 2 130.898438 1.601562 135 1 135 C 0.5 135 0 137 0 139.5 C 0 142 0.5 144 1 144 C 1.601562 144 2 148.101562 2 154.398438 C 2 160.300781 2.398438 165.199219 3 165.5 C 3.601562 165.800781 4 167.601562 4 169.300781 C 4 171.101562 4.699219 173.398438 5.5 174.398438 C 6.300781 175.5 7 177.800781 7 179.601562 C 7 181.398438 7.398438 183.199219 8 183.5 C 8.5 183.800781 9 184.898438 9 185.898438 C 9 186.800781 9.898438 189.5 11 191.800781 C 12.101562 194 13 196.699219 13 197.601562 C 13 198.601562 13.800781 200.300781 14.898438 201.398438 C 15.898438 202.601562 18.199219 206.300781 20 209.699219 C 21.699219 213.101562 23.800781 216.398438 24.601562 217.101562 C 25.398438 217.699219 26 218.898438 26 219.699219 C 26 220.398438 28 223.300781 30.5 225.898438 C 33 228.5 35 231.101562 35 231.601562 C 35 232.800781 46.300781 244 47.398438 244 C 47.898438 244 50.5 246 53.101562 248.5 C 55.699219 251 58.5 253 59.300781 253 C 60.101562 253 61.5 253.898438 62.5 255 C 63.5 256.101562 64.800781 257 65.300781 257 C 65.898438 257 67.300781 257.898438 68.398438 258.898438 C 71.300781 261.5 83.800781 268 86 268 C 87 268 89.5 268.800781 91.699219 269.898438 C 99.601562 273.699219 103.101562 275 106 275 C 107.601562 275 109.199219 275.398438 109.5 276 C 110.300781 277.398438 168.699219 277.398438 169.5 276 C 169.800781 275.5 171.898438 275 174.199219 275 C 176.5 275 180.199219 274 182.898438 272.601562 C 185.398438 271.300781 189.5 269.699219 192 269 C 197.800781 267.398438 206.5 263.300781 207.898438 261.601562 C 208.601562 260.800781 211.199219 259.300781 213.898438 258.101562 C 216.5 257 219.300781 255.398438 220 254.5 C 220.699219 253.699219 221.800781 253 222.398438 253 C 223 253 226 250.5 229 247.5 C 232 244.5 235 242 235.699219 242 C 236.398438 242 237 241.5 237 240.898438 C 237 240.300781 240.601562 236.101562 245 231.601562 C 249.398438 227.101562 253 222.898438 253 222.300781 C 253 221.800781 253.898438 220.5 255 219.5 C 256.101562 218.5 257 217.101562 257 216.398438 C 257 215.699219 258 213.898438 259.300781 212.300781 C 262.199219 208.800781 269.300781 194.101562 271.300781 187.5 C 272.199219 184.699219 273.800781 180 274.898438 177 C 276.101562 174 277 169.398438 277 166.800781 C 277 164.199219 277.5 161.800781 278 161.5 C 278.601562 161.101562 279 152.699219 279 139.5 C 279 126.300781 278.601562 117.898438 278 117.5 C 277.5 117.199219 277 114.800781 277 112.199219 C 277 109.601562 276.101562 105 274.898438 102 C 273.800781 99 272.199219 94.199219 271.300781 91.5 C 269.300781 84.898438 262.199219 70.199219 259.300781 66.699219 C 258 65.101562 257 63.300781 257 62.601562 C 257 61.898438 256.101562 60.5 255 59.5 C 253.898438 58.5 253 57.199219 253 56.699219 C 253 56.101562 249.398438 51.898438 245 47.398438 C 240.601562 42.898438 237 38.699219 237 38.101562 C 237 37.5 236.398438 37 235.699219 37 C 235 37 232 34.5 229 31.5 C 226 28.5 223 26 222.398438 26 C 221.800781 26 220.699219 25.300781 220 24.5 C 219.300781 23.601562 216.5 22 213.898438 20.898438 C 211.199219 19.699219 208.601562 18.199219 207.898438 17.398438 C 206.800781 16 199.300781 12.300781 193 10.101562 C 191.101562 9.398438 187.300781 7.898438 184.5 6.800781 C 181.800781 5.601562 177.5 4.5 175 4.300781 C 172.5 4 170.101562 3.398438 169.601562 2.898438 C 169 2.398438 167.101562 2 165.398438 2 C 163.601562 2 161.800781 1.5 161.5 1 C 161.101562 0.398438 153 0 140.5 0 C 128 0 119.898438 0.398438 119.5 1 Z M 119.5 1 "/>
</g>
</svg>
